<?xml version="1.0" encoding="utf-8"?>
<!-- Generator: Adobe Illustrator 16.0.0, SVG Export Plug-In . SVG Version: 6.00 Build 0)  -->
<!DOCTYPE svg PUBLIC "-//W3C//DTD SVG 1.1//EN" "http://www.w3.org/Graphics/SVG/1.1/DTD/svg11.dtd">
<svg version="1.1" id="Layer_1" xmlns="http://www.w3.org/2000/svg" xmlns:xlink="http://www.w3.org/1999/xlink" x="0px" y="0px"
	 width="500px" height="500px" viewBox="0 0 500 500" enable-background="new 0 0 500 500" xml:space="preserve">
<path fill="none" stroke="#000000" stroke-miterlimit="10" d="M101.386,316.094c1.02,0.298,1.435,0.422,1.813,0.532
	c6.142,0.348,9.169-3.558,11.331-8.872c5.936,4.656,11.407,9.245,17.172,13.423c21.995,15.927,46.5,25.816,73.315,30.009
	c39.456,6.166,76.36-1.245,111.01-20.771c1.087-0.61,5.894-3.279,7.062-4.15c19.484-13.239,35.987-29.053,49.492-48.396
	c0.515-0.677,4.414-7.208,5.042-8.285c15.651-26.8,23.374-55.752,23.735-86.735c0.017-1.24,0.305-2.478,0.468-3.716
	c1.869,0.355,3.347,0.7,4.845,0.91c5.715,0.799,8.605-3.297,9.332-6.448c0.881-3.83-1.488-7.849-5.874-9.172
	c-10.555-3.18-21.42-4.786-32.391-5.693c-2.63-0.218-4.882,0.749-6.605,2.703c-2.005,2.272-2.793,4.931-1.835,7.918
	c1.105,3.436,3.591,5.303,7.069,5.781c2.729,0.376,5.492,0.518,8.116,0.752c3.639,58.96-31.044,123.151-95.031,149.632
	c-61.977,25.646-129.298,5.221-165.415-32.483c1.497-2.293,3.163-4.581,4.55-7.03c2.19-3.876,1.281-8.217-2.029-10.636
	c-3.382-2.475-7.703-2.138-10.832,1.087c-1.571,1.623-2.922,3.498-4.176,5.393c-5.709,8.607-15.729,22.86-15.706,27.092
	c-0.271,2.221,1.264,4.352,1.659,4.74C98.157,314.313,98.796,315.119,101.386,316.094z"/>
</svg>
